<?xml version="1.0" standalone="no"?>
<!DOCTYPE svg PUBLIC "-//W3C//DTD SVG 20010904//EN"
 "http://www.w3.org/TR/2001/REC-SVG-20010904/DTD/svg10.dtd">
<svg version="1.0" xmlns="http://www.w3.org/2000/svg"
 width="300.000000pt" height="300.000000pt" viewBox="0 0 300.000000 300.000000"
 preserveAspectRatio="xMidYMid meet">

<g transform="translate(0.000000,300.000000) scale(0.100000,-0.100000)"
fill="#000000" stroke="none">
<path d="M689 2219 c-39 -39 -11 -98 131 -274 98 -123 118 -164 135 -287 l6
-48 -49 0 c-69 0 -144 -25 -189 -63 -28 -23 -71 -41 -157 -67 -120 -35 -143
-51 -131 -89 6 -19 27 -27 180 -62 96 -23 102 -26 144 -72 148 -163 354 -243
784 -306 124 -18 130 -20 239 -82 202 -114 206 -115 225 -103 16 10 32 60 47
144 5 25 27 58 81 115 73 79 88 112 62 133 -6 6 -93 29 -192 51 -99 23 -183
45 -188 50 -5 5 -5 51 -1 104 l7 95 56 25 c76 34 158 57 408 116 116 27 225
57 242 65 61 32 49 85 -26 110 -98 32 -410 74 -712 97 -191 14 -237 7 -326
-46 -32 -19 -60 -35 -64 -35 -4 0 -17 31 -29 68 -12 37 -35 88 -51 113 -65
104 -214 187 -437 244 -123 31 -167 32 -195 4z m399 -168 c75 -38 137 -84 159
-117 9 -15 31 -68 49 -118 l31 -90 -60 -71 c-33 -38 -63 -73 -66 -78 -4 -4
-41 1 -82 12 l-74 19 -7 59 c-12 108 -41 189 -93 259 l-23 30 46 62 c26 34 51
62 55 62 4 0 33 -13 65 -29z m773 -272 c57 -5 105 -12 107 -14 5 -4 31 -123
32 -140 0 -5 -28 -18 -62 -28 -87 -26 -168 -67 -186 -96 -12 -17 -17 -57 -20
-147 -6 -179 -14 -167 125 -199 157 -35 150 -32 130 -52 -16 -16 -40 -14 -143
13 -16 4 -23 0 -27 -15 -4 -17 2 -23 36 -32 23 -6 48 -13 55 -15 10 -3 10 -8
0 -26 -7 -13 -14 -24 -15 -26 0 -2 -19 6 -42 17 -49 26 -57 26 -64 2 -3 -14 8
-24 49 -44 30 -15 54 -34 54 -42 0 -19 -20 -19 -46 0 -12 8 -52 30 -90 49 -58
29 -93 37 -224 56 -424 60 -633 154 -760 344 l-32 48 19 27 c36 49 87 66 198
65 81 -1 116 -6 184 -29 l84 -29 21 26 c12 14 44 53 71 87 60 74 152 152 219
186 58 29 148 33 327 14z"/>
<path d="M872 1458 c-27 -27 -6 -68 35 -68 29 0 48 33 33 60 -12 22 -49 27
-68 8z"/>
</g>
</svg>
